<?xml version="1.0" standalone="no"?>
<!DOCTYPE svg PUBLIC "-//W3C//DTD SVG 20010904//EN"
 "http://www.w3.org/TR/2001/REC-SVG-20010904/DTD/svg10.dtd">
<svg version="1.0" xmlns="http://www.w3.org/2000/svg"
 width="300.000000pt" height="296.000000pt" viewBox="0 0 300.000000 296.000000"
 preserveAspectRatio="xMidYMid meet">
<metadata>
Created by potrace 1.10, written by Peter Selinger 2001-2011
</metadata>
<g transform="translate(0.000000,296.000000) scale(0.100000,-0.100000)"
fill="#000000" stroke="none">
<path d="M1290 2511 c-143 -32 -255 -77 -358 -144 -232 -151 -382 -354 -459
-627 -30 -103 -42 -316 -24 -425 21 -134 18 -122 55 -220 49 -131 146 -283
248 -387 41 -42 162 -138 174 -138 7 0 14 -4 16 -9 5 -13 136 -77 207 -101 71
-24 193 -50 224 -49 12 0 -17 9 -65 19 -443 92 -767 423 -843 859 -56 320 44
655 271 900 286 309 729 411 1144 263 231 -82 448 -278 564 -509 71 -143 116
-329 116 -480 -1 -158 -51 -355 -126 -492 -156 -285 -412 -474 -729 -540 -50
-11 -79 -20 -66 -20 42 -2 204 41 288 76 156 66 332 203 431 338 4 6 19 26 33
45 109 150 182 402 178 616 -7 396 -236 761 -585 932 -43 22 -90 42 -104 46
-14 4 -34 11 -45 16 -111 47 -399 64 -545 31z"/>
<path d="M1295 2471 c-221 -48 -388 -141 -537 -300 -181 -191 -278 -439 -278
-706 0 -473 303 -863 775 -996 69 -19 104 -23 250 -23 156 0 178 2 265 28 328
96 579 324 695 631 183 482 -29 1031 -491 1276 -187 99 -468 136 -679 90z
m475 -25 c275 -76 486 -246 629 -507 175 -320 155 -728 -50 -1031 -52 -76 -62
-89 -144 -171 -119 -119 -269 -204 -452 -254 -87 -24 -115 -27 -253 -27 -127
0 -168 4 -230 21 -101 29 -169 53 -205 73 -16 9 -51 28 -76 42 -140 78 -273
213 -359 363 -108 188 -148 352 -137 564 10 195 65 359 173 518 137 200 324
336 556 402 133 38 137 39 308 35 120 -2 162 -7 240 -28z"/>
<path d="M1493 2343 c-11 -26 -26 -65 -33 -85 -13 -42 -30 -50 -31 -15 0 20
-2 19 -11 -6 -8 -22 -15 -28 -36 -25 -24 3 -27 9 -39 72 -7 38 -10 73 -7 78 3
4 -9 8 -25 8 -31 0 -38 -8 -22 -25 11 -13 32 -135 25 -146 -7 -12 17 -10 94 4
35 7 60 15 57 19 -12 12 16 48 38 49 22 1 22 1 1 7 -19 7 -20 10 -9 42 14 38
15 37 38 -47 11 -38 11 -53 3 -57 -6 -2 5 -5 24 -5 19 -1 46 -4 59 -8 16 -4
22 -3 18 5 -12 18 4 42 27 42 35 0 49 -15 42 -44 -5 -19 -3 -26 8 -26 8 0 22
-3 31 -7 14 -5 16 -3 8 13 -6 10 -13 52 -16 93 -3 41 -11 79 -16 84 -7 7 -26
-16 -58 -66 -28 -45 -54 -76 -62 -74 -8 1 -26 37 -41 81 -14 44 -31 81 -37 83
-6 2 -19 -18 -30 -44z m210 -56 c6 -36 5 -38 -16 -31 -31 9 -30 8 -12 44 19
37 20 37 28 -13z"/>
<path d="M1145 2315 c-17 -7 -25 -14 -19 -14 14 -1 67 -139 58 -152 -7 -13 -2
-12 61 12 55 20 63 31 45 59 -8 12 -10 11 -10 -7 0 -20 -25 -43 -48 -43 -9 0
-24 38 -46 116 -11 42 -11 42 -41 29z"/>
<path d="M1828 2290 c-71 -55 -41 -170 44 -170 18 0 31 8 39 23 7 12 16 25 22
28 5 4 -4 14 -21 23 -39 20 -48 20 -32 1 10 -12 9 -20 -4 -40 -18 -28 -27 -30
-44 -13 -19 19 -14 72 11 109 35 52 90 50 100 -4 3 -20 4 -21 12 -4 11 25 -21
56 -66 63 -26 4 -41 0 -61 -16z"/>
<path d="M1024 2253 l-41 -26 43 -70 c24 -39 41 -74 38 -78 -9 -15 4 -10 56
22 48 29 61 51 40 64 -5 3 -10 -3 -10 -14 0 -11 -10 -26 -22 -32 -19 -10 -25
-8 -44 17 -26 32 -22 48 12 41 28 -5 29 0 9 27 -12 16 -15 17 -15 4 0 -21 -31
-32 -42 -16 -28 41 -28 47 -8 58 12 6 30 8 42 5 15 -5 19 -3 16 6 -8 23 -31
20 -74 -8z"/>
<path d="M1996 2190 c-7 -58 -38 -116 -57 -105 -18 12 -8 -7 14 -26 23 -19 42
-25 33 -10 -11 16 43 69 89 88 25 10 45 21 45 24 0 14 -29 17 -34 4 -3 -8 -19
-21 -35 -30 l-31 -15 6 32 c4 18 13 38 20 44 11 9 8 15 -15 32 l-29 21 -6 -59z"/>
<path d="M922 2180 c-25 -21 -28 -30 -9 -31 6 0 32 -25 56 -55 51 -65 46 -82
-18 -64 -33 9 -41 15 -41 33 0 58 -48 61 -101 7 -37 -37 -51 -58 -29 -45 5 3
37 -20 70 -53 l60 -58 22 23 c21 22 21 23 2 23 -24 0 -119 94 -110 109 10 16
41 14 56 -4 7 -8 9 -24 5 -37 -4 -13 -4 -20 0 -16 4 3 25 0 47 -8 39 -13 40
-13 78 17 l39 32 -39 46 c-21 25 -45 58 -52 72 -14 26 -14 26 -36 9z"/>
<path d="M1440 2134 c-14 -2 -52 -9 -85 -15 -135 -24 -311 -139 -390 -255 -22
-33 -43 -60 -47 -62 -5 -2 -8 -8 -8 -13 0 -6 -11 -34 -25 -64 -35 -77 -58
-222 -50 -315 19 -207 146 -415 314 -514 120 -70 184 -88 326 -93 89 -4 144
-1 175 8 25 7 48 12 51 11 16 -3 184 90 232 129 106 86 189 222 223 364 18 78
18 233 -1 313 -17 73 -72 187 -117 246 -92 116 -225 204 -366 240 -61 16 -191
27 -232 20z m260 -44 c204 -68 362 -226 427 -425 33 -102 37 -264 9 -365 -133
-484 -718 -648 -1086 -304 -122 114 -199 296 -199 469 -1 298 209 565 504 640
86 21 259 14 345 -15z"/>
<path d="M1383 1821 c-98 -34 -170 -98 -224 -201 -21 -39 -24 -59 -24 -150 0
-95 3 -110 28 -160 76 -149 222 -230 378 -210 136 17 244 95 302 219 74 156
13 368 -132 460 -98 62 -224 78 -328 42z m189 -6 c37 -7 88 -26 112 -40 51
-30 119 -101 113 -118 -4 -14 -597 -23 -597 -9 0 20 64 89 107 115 56 35 85
47 143 57 25 4 47 8 50 9 3 0 35 -6 72 -14z m248 -204 c0 -11 -3 -22 -8 -24
-4 -3 -72 -109 -152 -236 -80 -127 -149 -231 -154 -231 -4 0 -5 7 -2 16 3 9 6
84 6 167 l0 152 146 73 c80 41 143 76 141 79 -3 2 -71 -29 -151 -69 l-145 -74
-155 78 c-86 43 -156 80 -156 83 0 3 142 5 315 5 305 0 315 -1 315 -19z m-604
-62 c20 -33 90 -144 155 -246 66 -102 119 -189 119 -193 0 -11 -86 7 -136 30
-121 53 -214 195 -214 324 0 52 20 146 31 146 4 0 24 -27 45 -61z m639 -44 c9
-76 2 -111 -36 -192 -36 -76 -109 -144 -186 -173 -99 -37 -103 -28 -38 75 77
121 177 282 204 327 31 52 48 41 56 -37z m-489 8 c60 -31 112 -61 117 -67 8
-12 8 -266 0 -266 -6 0 -45 48 -53 64 -3 6 -26 44 -53 84 -26 40 -47 76 -47
81 0 5 -3 11 -8 13 -10 4 -86 120 -88 136 -4 22 22 13 132 -45z"/>
<path d="M2152 2083 c-6 -2 -10 -9 -7 -14 3 -4 -2 -23 -11 -41 -16 -30 -17
-31 -30 -13 -19 25 -18 30 9 44 25 13 12 10 -66 -19 -39 -14 -45 -19 -34 -29
12 -9 16 -8 21 4 8 21 39 19 60 -4 19 -21 12 -51 -12 -51 -13 0 -12 -4 5 -22
11 -13 26 -34 33 -47 8 -15 15 -20 19 -12 8 12 119 81 131 81 19 0 19 -35 0
-54 -16 -16 -24 -18 -37 -10 -15 9 -22 4 -45 -27 l-27 -38 24 -53 c14 -29 25
-48 25 -42 0 6 11 16 25 22 54 25 59 11 15 -37 -26 -28 -29 -38 -22 -60 l9
-26 13 25 c7 14 24 40 38 58 l25 32 44 -25 c36 -20 44 -21 41 -8 -2 9 -10 17
-18 19 -8 1 -33 10 -55 19 l-40 18 35 12 c19 7 39 10 43 8 4 -3 5 8 1 24 -9
35 -13 41 -22 26 -4 -7 -38 -24 -75 -38 -57 -21 -68 -23 -73 -10 -3 8 3 29 14
47 16 25 28 32 53 32 53 1 59 26 24 92 -16 31 -31 50 -33 42 -3 -14 -120 -91
-132 -86 -4 2 11 37 35 78 49 85 48 104 -3 83z"/>
<path d="M710 1928 c-36 -49 -37 -54 -7 -62 31 -7 117 -63 117 -76 0 -6 -35
-10 -89 -10 -50 0 -93 -4 -96 -10 -3 -5 26 -35 65 -67 38 -31 70 -62 70 -68 0
-5 5 -3 10 5 14 21 12 30 -3 24 -21 -8 -39 21 -31 51 6 23 11 26 35 23 26 -4
30 1 65 68 26 51 35 79 30 97 -8 32 -33 41 -62 22 -21 -13 -23 -13 -18 0 8 20
-13 45 -37 45 -11 0 -32 -18 -49 -42z m54 6 c19 -7 22 -54 3 -54 -7 0 -23 7
-35 16 -18 13 -21 19 -11 30 13 16 20 17 43 8z m77 -34 c18 -10 26 -49 13 -63
-7 -7 -60 18 -68 32 -6 9 19 41 30 41 3 0 14 -5 25 -10z m-101 -162 c0 -7 -4
-19 -9 -27 -7 -11 -13 -10 -35 5 -35 26 -32 34 9 34 21 0 35 -5 35 -12z"/>
<path d="M2270 1622 c-35 -36 -38 -69 -10 -105 26 -33 69 -42 113 -23 90 37
73 142 -25 153 -42 5 -50 3 -78 -25z m138 -24 c34 -34 3 -65 -76 -75 -38 -4
-52 -2 -66 12 -37 38 4 75 85 75 25 0 50 -5 57 -12z"/>
<path d="M594 1618 c-19 -62 0 -111 51 -128 72 -24 125 12 125 85 0 41 -2 45
-27 51 -16 3 -33 7 -39 9 -12 4 -29 -54 -19 -63 3 -3 5 0 5 6 0 7 15 12 35 12
31 0 35 -3 35 -25 0 -44 -72 -60 -130 -30 -23 12 -30 22 -30 46 0 22 5 32 20
36 26 7 26 23 1 23 -12 0 -23 -9 -27 -22z"/>
<path d="M600 1400 c-24 -24 -24 -29 -4 -58 18 -27 55 -29 77 -4 22 24 21 45
-1 65 -25 22 -48 21 -72 -3z m61 0 c37 -20 17 -70 -28 -70 -32 0 -47 38 -25
63 18 20 26 21 53 7z"/>
<path d="M2336 1404 c-19 -18 -20 -38 -6 -65 12 -22 59 -26 78 -7 28 28 2 88
-38 88 -10 0 -26 -7 -34 -16z m64 -9 c26 -32 -13 -81 -47 -59 -35 22 -23 74
17 74 10 0 23 -7 30 -15z"/>
<path d="M2260 1240 c0 -6 12 -22 28 -35 l27 -24 -25 -2 c-14 -1 -30 -1 -36 0
-7 1 -15 -6 -18 -15 -4 -11 -2 -15 8 -11 38 15 87 18 100 8 10 -9 15 -8 20 4
3 10 -1 15 -13 15 -11 0 -33 16 -50 35 -32 37 -41 42 -41 25z"/>
<path d="M672 1214 c-22 -15 -27 -38 -16 -68 3 -9 10 -16 15 -16 5 0 3 11 -3
25 -13 29 -1 48 38 59 25 8 58 -19 50 -40 -3 -8 -1 -14 4 -14 17 0 11 36 -8
53 -23 21 -51 22 -80 1z"/>
<path d="M718 1134 c-20 -10 -28 -22 -28 -42 0 -53 46 -69 94 -31 31 25 33 42
6 69 -24 24 -36 24 -72 4z m67 -34 c0 -30 -40 -54 -67 -39 -41 22 -10 71 42
66 19 -1 25 -8 25 -27z"/>
<path d="M2210 1113 c0 -5 16 -24 35 -43 19 -19 35 -40 35 -47 0 -18 17 -16
24 2 3 9 0 15 -9 15 -8 0 -15 4 -15 8 0 16 26 43 39 40 7 -2 16 3 18 10 3 8
-10 12 -45 12 -28 0 -57 3 -66 6 -9 3 -16 2 -16 -3z m70 -33 c-6 -11 -12 -20
-13 -20 -1 0 -10 9 -20 20 -16 19 -16 20 13 20 28 0 30 -2 20 -20z"/>
<path d="M807 1052 c-10 -11 -32 -26 -48 -32 -30 -13 -36 -24 -19 -35 6 -3 10
-2 10 3 0 11 50 46 56 39 3 -2 -4 -25 -15 -51 -11 -25 -16 -46 -10 -46 5 0 27
12 49 26 22 15 43 24 47 20 9 -8 -58 -77 -69 -70 -4 3 -8 1 -8 -5 0 -24 22
-19 51 11 l31 33 -7 -29 c-21 -99 -18 -106 30 -56 27 28 55 40 55 22 0 -4 -15
-25 -34 -45 l-33 -36 24 -23 c19 -17 26 -19 36 -9 9 10 9 12 -1 9 -22 -5 -39
29 -24 44 11 11 16 9 28 -6 7 -11 17 -16 21 -13 3 4 -2 13 -12 21 -17 12 -17
16 -5 31 13 16 15 16 31 -4 10 -12 20 -18 23 -13 3 5 -13 26 -34 46 l-40 38
-26 -32 c-15 -17 -29 -29 -32 -26 -2 3 1 25 8 50 10 38 10 47 -5 69 l-16 25
-32 -29 c-44 -40 -49 -36 -26 16 25 57 23 87 -4 57z"/>
<path d="M2161 1024 l-20 -26 47 -33 c47 -33 47 -33 65 -13 24 28 22 42 -14
72 -38 33 -52 33 -78 0z m72 -8 c18 -14 23 -51 9 -60 -5 -3 -25 6 -46 20 -30
21 -35 28 -25 40 14 17 39 18 62 0z"/>
<path d="M2107 952 c-28 -30 -17 -65 27 -89 41 -23 86 22 63 63 -25 45 -63 56
-90 26z m61 -8 c26 -18 30 -62 6 -71 -8 -3 -26 0 -40 7 -36 20 -32 73 6 79 3
1 16 -6 28 -15z"/>
<path d="M2036 884 c-21 -19 -26 -28 -17 -37 8 -8 11 -7 11 6 0 9 4 17 9 17
10 0 57 -53 63 -71 5 -14 28 -3 28 12 0 6 -4 8 -9 5 -5 -3 -21 11 -37 31 -18
24 -24 38 -16 41 13 4 17 22 5 22 -5 0 -21 -12 -37 -26z"/>
<path d="M1938 808 c-27 -19 -27 -20 -8 -40 10 -11 25 -33 32 -49 l14 -28 32
19 c22 14 30 24 25 36 -6 15 -7 15 -14 -3 -4 -11 -14 -23 -22 -26 -22 -8 -32
25 -12 40 10 6 14 17 10 23 -5 8 -11 6 -19 -6 -14 -19 -36 -11 -36 12 0 13 12
18 33 15 4 0 7 3 7 8 0 19 -16 19 -42 -1z"/>
<path d="M991 794 c-12 -15 -21 -33 -21 -40 0 -14 50 -57 58 -49 3 3 -4 12
-16 21 -27 18 -28 45 -4 67 25 23 53 21 59 -3 4 -15 11 -19 24 -15 11 4 19 2
19 -4 0 -16 -41 -81 -52 -81 -5 0 -6 -4 -3 -10 3 -5 13 -10 22 -10 9 0 14 3
10 6 -8 8 30 84 42 84 5 0 11 -5 13 -12 3 -9 6 -9 12 0 4 7 -8 19 -33 31 -22
12 -42 25 -46 31 -13 20 -63 11 -84 -16z"/>
<path d="M1846 757 c-16 -12 -16 -15 8 -57 14 -24 23 -47 20 -52 -7 -10 7 -10
24 1 11 7 11 9 -2 14 -16 6 -23 37 -8 37 4 0 18 -7 30 -16 12 -8 27 -12 33 -8
7 4 -1 12 -20 20 -21 9 -29 18 -25 29 7 17 -12 45 -30 45 -7 0 -20 -6 -30 -13z
m44 -26 c0 -28 -17 -35 -29 -12 -15 27 -14 31 9 31 13 0 20 -7 20 -19z"/>
<path d="M1153 705 c-10 -25 -21 -45 -25 -45 -5 0 -8 -4 -8 -10 0 -5 7 -10 15
-10 8 0 15 5 15 10 0 6 9 30 20 52 23 48 23 48 11 48 -5 0 -17 -20 -28 -45z"/>
<path d="M1204 714 c-1 -12 -9 -37 -18 -55 -19 -39 -19 -36 0 -43 11 -4 15 -2
12 6 -3 7 0 29 7 48 13 37 17 34 33 -29 12 -49 26 -48 41 4 7 25 17 45 23 45
5 0 6 5 3 10 -9 15 -35 12 -29 -4 3 -7 -1 -28 -8 -47 l-14 -33 -13 56 c-12 58
-35 83 -37 42z"/>
<path d="M1797 734 c-3 -4 1 -20 9 -36 20 -39 15 -73 -11 -73 -22 0 -56 60
-47 83 4 11 1 12 -14 4 -10 -5 -22 -10 -27 -11 -4 0 -29 -3 -56 -7 l-48 -6 10
-39 c11 -47 4 -69 -22 -69 -25 0 -30 8 -33 58 -2 23 -8 42 -14 42 -8 0 -9 -14
-3 -47 12 -62 27 -77 62 -64 24 9 27 16 27 59 0 40 3 48 20 49 15 1 22 -8 30
-38 6 -22 8 -44 5 -49 -3 -6 4 -10 16 -10 16 0 19 3 12 13 -6 6 -15 32 -21 55
-10 41 -9 44 9 39 10 -3 19 0 19 6 1 7 11 -8 23 -33 19 -38 26 -45 52 -45 29
0 30 1 28 45 -4 79 -8 91 -26 74z"/>
<path d="M1332 689 c-23 -9 -36 -42 -30 -80 4 -28 55 -49 69 -28 13 21 11 49
-5 49 -9 0 -12 -7 -9 -21 5 -17 2 -20 -18 -17 -46 6 -32 88 16 88 13 0 26 -6
28 -12 4 -8 6 -7 6 3 1 20 -27 29 -57 18z"/>
<path d="M1455 620 c0 -37 4 -60 11 -60 7 0 9 10 6 25 -4 22 -1 25 22 25 15 0
26 6 26 14 0 9 -8 12 -25 8 -20 -3 -25 0 -25 17 0 23 35 30 43 9 3 -8 6 -6 6
5 1 13 -7 17 -31 17 l-33 0 0 -60z"/>
<path d="M1453 403 c32 -2 81 -2 110 0 29 2 3 3 -58 3 -60 0 -84 -1 -52 -3z"/>
</g>
</svg>
